# xmcd
#
# Track frame offsets:
#	150
#	15095
#	30472
#	45179
#	58321
#	70376
#	88666
#	116801
#	130808
#	146884
#	162769
#	185832
#	206802
#	224633
#	238597
#	254748
#	272400
#	289535
#	316251
#
# Disc length: 4795 seconds
#
# Revision: 2
# Processed by: cddbd v1.5.2PL0 Copyright (c) Steve Scherf et al.
# Submitted via: audiograbber 1.83.01
#
DISCID=2012b913
DTITLE=Various Artist - Oriental Club 2 [CD 1)
DYEAR=2003
DGENRE=Pop
TTITLE0=Panjabi MC - Jogi
TTITLE1=Snap! - The Power (of Bhangara) 2003
TTITLE2=Sanj feat. Surinder Shinda - Sadara De
TTITLE3=Mykel Angel - Do My Diddy (Dubmix)
TTITLE4=DJ Stin - Bhangre Vich
TTITLE5=Panjabi Hit Squad - Dil Chura Liya
TTITLE6=A.S. Hang feat. Miss Lee - Gidhian Di Raniye
TTITLE7=Subs - Apache Indian feat. Binda Bajwa - Tere Toor
TTITLE8=Feel Good Productions - The Feel Good Vibe
TTITLE9=Mykel Angel - Shahzad´s Dream
TTITLE10=Bym - Teen Taal
TTITLE11=Bally Scoo - Norie (Hip Hop Mix)
TTITLE12=Panjabi MC - Beware of the Boys (Mundian Jay-Z Mix)
TTITLE13=Npuri feat. Ydama - Loving You
TTITLE14=Jakatta - So Lonely
TTITLE15=Sezen Aksu - Rakkas
TTITLE16=Mustafa Sandal - Aya Benzer
TTITLE17=Holly Valance - Kiss Kiss
TTITLE18=Daten-CD - Daten-CD
EXTD=
EXTT0=
EXTT1=
EXTT2=
EXTT3=
EXTT4=
EXTT5=
EXTT6=
EXTT7=
EXTT8=
EXTT9=
EXTT10=
EXTT11=
EXTT12=
EXTT13=
EXTT14=
EXTT15=
EXTT16=
EXTT17=
EXTT18=
PLAYORDER=
